<svg width="1280" height="832" viewBox="0 0 1280 832" fill="none" xmlns="http://www.w3.org/2000/svg">
<g clip-path="url(#clip0_2069_29789)">
<rect width="1280" height="832" fill="#A3EBD5"/>
<path fill-rule="evenodd" clip-rule="evenodd" d="M-88.6243 1091.5C185.6 1091.5 407.903 947.808 407.903 770.561C407.903 675.805 54.124 754.364 -46.91 695.617C-134.867 644.473 39.0006 449.627 -88.6243 449.627C-362.849 449.627 -585.152 593.314 -585.152 770.561C-585.152 947.808 -362.849 1091.5 -88.6243 1091.5Z" fill="#19CC95"/>
<path opacity="0.541829" fill-rule="evenodd" clip-rule="evenodd" d="M568.202 -48.0299C512.762 155.194 722.702 348.989 1037.12 384.823C1205.2 403.98 1137.37 125.917 1262.01 62.9185C1370.51 8.07443 1681 176.317 1706.8 81.7362C1762.24 -121.488 1552.3 -315.283 1237.88 -351.117C923.467 -386.951 623.641 -251.254 568.202 -48.0299Z" fill="#19CC95"/>
<path opacity="0.6" fill-rule="evenodd" clip-rule="evenodd" d="M-147.417 -65.9814C-405.104 -5.35932 -537.968 178.806 -444.178 345.364C-394.038 434.406 -103.163 282.375 22.8637 315.245C132.579 343.86 72.2997 565.392 192.228 537.178C449.915 476.556 582.779 292.39 488.989 125.832C395.198 -40.7256 110.27 -126.604 -147.417 -65.9814Z" fill="#19CC95"/>
<path fill-rule="evenodd" clip-rule="evenodd" d="M1835.21 841.891C1896.4 617.603 1664.7 403.722 1317.7 364.174C1132.19 343.032 1207.05 649.916 1069.5 719.443C949.745 779.972 607.082 594.291 578.606 698.675C517.42 922.963 749.121 1136.84 1096.12 1176.39C1443.13 1215.94 1774.03 1066.18 1835.21 841.891Z" fill="#19CC95"/>
</g>
<defs>
<clipPath id="clip0_2069_29789">
<rect width="1280" height="832" fill="white"/>
</clipPath>
</defs>
</svg>
